<svg xmlns="http://www.w3.org/2000/svg" viewBox="0 0 200 200" fill="none" role="img" aria-label="Team member portrait">
  <rect width="200" height="200" rx="12" fill="#E9EDF1"/>
  <!-- Background shape -->
  <rect x="0" y="120" width="200" height="80" fill="#1E293B"/>
  <!-- Shoulders / suit -->
  <path d="M40 200 L60 130 L140 130 L160 200 Z" fill="#334155"/>
  <path d="M70 130 L100 160 L130 130" fill="#FFFFFF"/>
  <!-- Neck -->
  <rect x="88" y="108" width="24" height="28" fill="#D4A574"/>
  <!-- Head -->
  <ellipse cx="100" cy="88" rx="36" ry="40" fill="#D4A574"/>
  <!-- Hair -->
  <path d="M68 80 C68 48 132 48 132 80 C132 60 120 44 100 44 C80 44 68 60 68 80 Z" fill="#1E293B"/>
  <!-- Face details -->
  <ellipse cx="86" cy="88" rx="4" ry="5" fill="#1E293B"/>
  <ellipse cx="114" cy="88" rx="4" ry="5" fill="#1E293B"/>
  <path d="M90 104 Q100 112 110 104" stroke="#B8864E" stroke-width="2" fill="none" stroke-linecap="round"/>
  <!-- Accent badge -->
  <rect x="148" y="148" width="36" height="36" rx="8" fill="#1E293B"/>
  <path d="M158 168 L166 176 L178 160" stroke="#FFFFFF" stroke-width="2.5" stroke-linecap="round" stroke-linejoin="round" fill="none"/>
</svg>
